<!DOCTYPE svg PUBLIC "-//W3C//DTD SVG 1.1//EN" "http://www.w3.org/Graphics/SVG/1.1/DTD/svg11.dtd">
<!-- Uploaded to: SVG Repo, www.svgrepo.com, Transformed by: SVG Repo Mixer Tools -->
<svg width="800px" height="800px" viewBox="-8.32 -8.32 48.64 48.64" xmlns="http://www.w3.org/2000/svg" fill="#ffffff" stroke="#ffffff">
<g id="SVGRepo_bgCarrier" stroke-width="0"/>
<g id="SVGRepo_tracerCarrier" stroke-linecap="round" stroke-linejoin="round" stroke="#CCCCCC" stroke-width="0.256"/>
<g id="SVGRepo_iconCarrier"> <g id="Lager_86" data-name="Lager 86" transform="translate(0 -3)"> <path id="Path_94" data-name="Path 94" d="M16.587,6.42,27.167,17,16.587,27.58a2,2,0,0,0,2.833,2.833L31.414,18.42a2.013,2.013,0,0,0,0-2.84L19.42,3.587A2,2,0,0,0,16.587,6.42Z" fill="#ffffff"/> <path id="Rectangle_45" data-name="Rectangle 45" d="M0,0H26a2,2,0,0,1,2,2V2a2,2,0,0,1-2,2H0A0,0,0,0,1,0,4V0A0,0,0,0,1,0,0Z" transform="translate(28 19) rotate(180)" fill="#ffffff"/> </g> </g>
</svg>